<svg xmlns="http://www.w3.org/2000/svg" width="1280" height="800" viewBox="0 0 1280 800" role="img" aria-label="Placeholder for the performance screen">
  <!-- PLACEHOLDER, generated by scripts/build-placeholders.mjs.
       Chrome is real text so the app is recognisable; anything that would be a
       particular account's own words or numbers is a skeleton bar, because
       inventing those would show a page that does not exist.
       Replaced by a real capture from 'npm run shoot'. -->
  <defs><style>
    .bg{fill:#0b0f18}.panel{fill:#0e131e}.well{fill:#090d15}.line{fill:#1c2436}
    .sk{fill:#2a3450}.sk2{fill:#1f2738}
    .horn{fill:#c9a668}.acc{fill:#0f52ba}.acc2{fill:#5b8ff9}
    text{font-family:system-ui, -apple-system, 'Segoe UI', Roboto, Helvetica, Arial, sans-serif;fill:#eef1f9}
    .t-nav{font-size:13px;fill:#97a2bd}
    .t-nav-on{font-size:13px;fill:#eef1f9;font-weight:500}
    .t-group{font-size:10px;fill:#55607d;letter-spacing:1.2px}
    .t-title{font-size:20px;fill:#eef1f9}
    .t-btn{font-size:12px;fill:#f3f6ff;font-weight:500}
    .t-btn-q{font-size:12px;fill:#97a2bd}
    .t-label{font-size:11px;fill:#55607d;letter-spacing:1px}
    .t-meta{font-size:11px;fill:#55607d}
    .t-body{font-size:13px;fill:#97a2bd}
</style></defs>
  <rect class="bg" width="1280" height="800"/>
  <rect class="panel" width="236" height="800"/>
  <rect class="line" x="236" width="1" height="800"/>
  <path class="horn" d="M24 34c6-9 15-9 19 0 4-9 13-9 19 0-4 13-15 19-19 19s-15-6-19-19z" opacity=".9"/>
  <text x="72" y="41" style="font-size:17px">Diwche</text>
  <text class="t-group" x="24" y="96">CREATE</text><text class="t-nav" x="30" y="123">Create</text><text class="t-nav" x="30" y="153">D1 Studio</text><text class="t-nav" x="30" y="183">Reel</text><text class="t-nav" x="30" y="213">Story</text><text class="t-group" x="24" y="252">LIBRARY</text><text class="t-nav" x="30" y="279">Gallery</text><text class="t-nav" x="30" y="309">Music</text><text class="t-nav" x="30" y="339">Templates</text><text class="t-nav" x="30" y="369">Palettes</text><text class="t-group" x="24" y="408">INSIGHT</text><text class="t-nav" x="30" y="435">Ideas</text><rect class="line" x="14" y="446" width="200" height="28" rx="6"/>
                <rect class="horn" x="14" y="446" width="2.5" height="28" rx="1.25"/><text class="t-nav-on" x="30" y="465">Performance</text><text class="t-group" x="24" y="504">MANAGE</text><text class="t-nav" x="30" y="531">Accounts</text><text class="t-nav" x="30" y="561">Activity</text>
  <text class="t-title" x="284" y="55">Performance</text>
  <rect class="line" x="1175.6" y="34" width="72.4" height="32" rx="8" fill="none" stroke="#2a3450"/>
         <text class="t-btn-q" x="1211.8" y="54" text-anchor="middle">Export</text><rect class="line" x="1048.8" y="34" width="116.80000000000001" height="32" rx="8" fill="none" stroke="#2a3450"/>
         <text class="t-btn-q" x="1107.2" y="54" text-anchor="middle">Last 30 days</text>
  <rect class="line" x="236" y="88" width="1044" height="1"/><rect class="panel" x="284" y="116" width="972" height="108" rx="10"/>
   <rect x="284" y="116" width="972" height="108" rx="10" fill="none" stroke="#1c2436"/><rect class="horn" x="284" y="116" width="3" height="108" rx="1.5"/>
       <text class="t-label" x="312" y="146">WHAT WORKED, AND WHY</text>
       <rect class="sk" x="312" y="162" width="700" height="8" rx="4"/><rect class="sk" x="312" y="182" width="540" height="8" rx="4"/><rect class="panel" x="284" y="244" width="226" height="96" rx="10"/>
   <rect x="284" y="244" width="226" height="96" rx="10" fill="none" stroke="#1c2436"/><text class="t-label" x="308" y="274">REACH</text>
           <rect class="sk" x="308" y="288" width="96" height="8" rx="4"/>
           <rect class="sk2" x="308" y="312" width="140" height="8" rx="4"/><rect class="panel" x="530" y="244" width="226" height="96" rx="10"/>
   <rect x="530" y="244" width="226" height="96" rx="10" fill="none" stroke="#1c2436"/><text class="t-label" x="554" y="274">SAVES</text>
           <rect class="sk" x="554" y="288" width="96" height="8" rx="4"/>
           <rect class="sk2" x="554" y="312" width="140" height="8" rx="4"/><rect class="panel" x="776" y="244" width="226" height="96" rx="10"/>
   <rect x="776" y="244" width="226" height="96" rx="10" fill="none" stroke="#1c2436"/><text class="t-label" x="800" y="274">SHARES</text>
           <rect class="sk" x="800" y="288" width="96" height="8" rx="4"/>
           <rect class="sk2" x="800" y="312" width="140" height="8" rx="4"/><rect class="panel" x="1022" y="244" width="226" height="96" rx="10"/>
   <rect x="1022" y="244" width="226" height="96" rx="10" fill="none" stroke="#1c2436"/><text class="t-label" x="1046" y="274">FOLLOWS</text>
           <rect class="sk" x="1046" y="288" width="96" height="8" rx="4"/>
           <rect class="sk2" x="1046" y="312" width="140" height="8" rx="4"/><rect class="panel" x="284" y="360" width="972" height="326" rx="10"/>
   <rect x="284" y="360" width="972" height="326" rx="10" fill="none" stroke="#1c2436"/><text class="t-label" x="312" y="392">WHEN YOUR POSTS ACTUALLY DID BEST</text>
       <rect class="acc" x="330" y="608" width="34" height="30" rx="6" opacity=".5"/><rect class="acc" x="394" y="530.0725432073434" width="34" height="107.92745679265654" rx="6" opacity=".5"/><rect class="acc" x="458" y="469.4843132047296" width="34" height="168.5156867952704" rx="6" opacity=".5"/><rect class="acc" x="522" y="439.71647701673896" width="34" height="198.28352298326107" rx="6" opacity=".5"/><rect class="acc" x="586" y="447.39251863677" width="34" height="190.60748136323005" rx="6" opacity=".5"/><rect class="acc" x="650" y="490.80448258959575" width="34" height="147.19551741040422" rx="6" opacity=".5"/><rect class="horn" x="714" y="560.2930020825594" width="34" height="77.70699791744066" rx="6" opacity=".95"/><rect class="acc" x="778" y="575.6034463111675" width="34" height="62.39655368883244" rx="6" opacity=".5"/><rect class="acc" x="842" y="502.70828074424725" width="34" height="135.29171925575275" rx="6" opacity=".5"/><rect class="acc" x="906" y="453.24101946716695" width="34" height="184.75898053283305" rx="6" opacity=".5"/><rect class="acc" x="970" y="438.20836149549643" width="34" height="199.79163850450357" rx="6" opacity=".5"/><rect class="acc" x="1034" y="460.95514415045704" width="34" height="177.04485584954298" rx="6" opacity=".5"/><rect class="acc" x="1098" y="516.4201009743534" width="34" height="121.57989902564657" rx="6" opacity=".5"/><rect class="acc" x="1162" y="592.2620173959423" width="34" height="45.73798260405776" rx="6" opacity=".5"/>
       <rect class="line" x="312" y="644" width="916" height="1"/>
       <text class="t-meta" x="340" y="666">00:00</text><text class="t-meta" x="516" y="666">04:00</text><text class="t-meta" x="692" y="666">08:00</text><text class="t-meta" x="868" y="666">12:00</text><text class="t-meta" x="1044" y="666">16:00</text><text class="t-meta" x="1220" y="666">20:00</text>
</svg>
